<svg width="233" height="167" viewBox="0 0 233 167" fill="none" xmlns="http://www.w3.org/2000/svg">
<g opacity="0.6">
<circle cx="166.093" cy="160.647" r="6.35326" fill="#D3E3F8" fill-opacity="0.4"/>
<circle cx="166.093" cy="138.864" r="6.35326" fill="#D3E3F8" fill-opacity="0.4"/>
<circle cx="166.092" cy="117.08" r="6.35326" fill="#D3E3F8" fill-opacity="0.4"/>
<circle cx="186.06" cy="117.08" r="6.35326" fill="#D3E3F8" fill-opacity="0.4"/>
<circle cx="206.027" cy="117.08" r="6.35326" fill="#D3E3F8" fill-opacity="0.4"/>
<circle cx="225.994" cy="117.08" r="6.35326" fill="#D3E3F8" fill-opacity="0.4"/>
<circle cx="166.092" cy="93.4822" r="6.35326" fill="#D3E3F8" fill-opacity="0.4"/>
<circle cx="186.06" cy="93.4822" r="6.35326" fill="#D3E3F8" fill-opacity="0.4"/>
<circle cx="126.157" cy="160.647" r="6.35326" fill="#D3E3F8" fill-opacity="0.4"/>
<circle cx="146.125" cy="160.647" r="6.35326" fill="#D3E3F8" fill-opacity="0.4"/>
<circle cx="126.157" cy="138.864" r="6.35326" fill="#D3E3F8" fill-opacity="0.4"/>
<circle cx="146.125" cy="138.864" r="6.35326" fill="#D3E3F8" fill-opacity="0.4"/>
<circle cx="126.158" cy="117.08" r="6.35326" fill="#D3E3F8" fill-opacity="0.4"/>
<circle cx="146.125" cy="117.08" r="6.35326" fill="#D3E3F8" fill-opacity="0.4"/>
<circle cx="126.158" cy="93.4822" r="6.35326" fill="#D3E3F8" fill-opacity="0.4"/>
<circle cx="146.125" cy="93.4822" r="6.35326" fill="#D3E3F8" fill-opacity="0.4"/>
<circle cx="206.027" cy="93.4822" r="6.35326" fill="#D3E3F8" fill-opacity="0.4"/>
<circle cx="225.994" cy="93.4822" r="6.35326" fill="#D3E3F8" fill-opacity="0.4"/>
<circle cx="166.092" cy="73.5173" r="6.35326" fill="#D3E3F8" fill-opacity="0.4"/>
<circle cx="186.06" cy="73.5173" r="6.35326" fill="#D3E3F8" fill-opacity="0.4"/>
<circle cx="206.027" cy="73.5173" r="6.35326" fill="#D3E3F8" fill-opacity="0.4"/>
<circle cx="225.994" cy="73.5173" r="6.35326" fill="#D3E3F8" fill-opacity="0.4"/>
<circle cx="166.092" cy="51.7322" r="6.35326" fill="#D3E3F8" fill-opacity="0.4"/>
<circle cx="186.06" cy="51.7322" r="6.35326" fill="#D3E3F8" fill-opacity="0.4"/>
<circle cx="206.027" cy="51.7322" r="6.35326" fill="#D3E3F8" fill-opacity="0.4"/>
<circle cx="225.994" cy="51.7322" r="6.35326" fill="#D3E3F8" fill-opacity="0.4"/>
<circle cx="166.093" cy="29.9509" r="6.35326" fill="#D3E3F8" fill-opacity="0.4"/>
<circle cx="186.06" cy="29.9509" r="6.35326" fill="#D3E3F8" fill-opacity="0.4"/>
<circle cx="206.027" cy="29.9509" r="6.35326" fill="#D3E3F8" fill-opacity="0.4"/>
<circle cx="225.994" cy="29.9509" r="6.35326" fill="#D3E3F8" fill-opacity="0.4"/>
<circle cx="166.093" cy="6.35326" r="6.35326" fill="#D3E3F8" fill-opacity="0.4"/>
<circle cx="186.06" cy="6.35326" r="6.35326" fill="#D3E3F8" fill-opacity="0.4"/>
<circle cx="126.158" cy="73.5173" r="6.35326" fill="#D3E3F8" fill-opacity="0.4"/>
<circle cx="146.125" cy="73.5173" r="6.35326" fill="#D3E3F8" fill-opacity="0.4"/>
<circle cx="126.158" cy="51.7322" r="6.35326" fill="#D3E3F8" fill-opacity="0.4"/>
<circle cx="146.125" cy="51.7322" r="6.35326" fill="#D3E3F8" fill-opacity="0.4"/>
<circle cx="126.157" cy="29.9509" r="6.35326" fill="#D3E3F8" fill-opacity="0.4"/>
<circle cx="146.125" cy="29.9509" r="6.35326" fill="#D3E3F8" fill-opacity="0.4"/>
<circle cx="126.157" cy="6.35326" r="6.35326" fill="#D3E3F8" fill-opacity="0.4"/>
<circle cx="146.125" cy="6.35326" r="6.35326" fill="#D3E3F8" fill-opacity="0.4"/>
<circle cx="206.027" cy="6.35326" r="6.35326" fill="#D3E3F8" fill-opacity="0.4"/>
<circle cx="225.994" cy="6.35326" r="6.35326" fill="#D3E3F8" fill-opacity="0.4"/>
<circle cx="46.2878" cy="160.647" r="6.35326" fill="#D3E3F8" fill-opacity="0.4"/>
<circle cx="66.2556" cy="160.647" r="6.35326" fill="#D3E3F8" fill-opacity="0.4"/>
<circle cx="86.2229" cy="160.647" r="6.35326" fill="#D3E3F8" fill-opacity="0.4"/>
<circle cx="106.19" cy="160.647" r="6.35326" fill="#D3E3F8" fill-opacity="0.4"/>
<circle cx="46.2878" cy="138.864" r="6.35326" fill="#D3E3F8" fill-opacity="0.4"/>
<circle cx="66.2556" cy="138.864" r="6.35326" fill="#D3E3F8" fill-opacity="0.4"/>
<circle cx="86.2229" cy="138.864" r="6.35326" fill="#D3E3F8" fill-opacity="0.4"/>
<circle cx="106.19" cy="138.864" r="6.35326" fill="#D3E3F8" fill-opacity="0.4"/>
<circle cx="46.2888" cy="117.08" r="6.35326" fill="#D3E3F8" fill-opacity="0.4"/>
<circle cx="66.2556" cy="117.08" r="6.35326" fill="#D3E3F8" fill-opacity="0.4"/>
<circle cx="86.2224" cy="117.08" r="6.35326" fill="#D3E3F8" fill-opacity="0.4"/>
<circle cx="106.191" cy="117.08" r="6.35326" fill="#D3E3F8" fill-opacity="0.4"/>
<circle cx="46.2888" cy="93.4822" r="6.35326" fill="#D3E3F8" fill-opacity="0.4"/>
<circle cx="66.2556" cy="93.4822" r="6.35326" fill="#D3E3F8" fill-opacity="0.4"/>
<circle cx="6.35326" cy="160.647" r="6.35326" fill="#D3E3F8" fill-opacity="0.4"/>
<circle cx="26.3205" cy="160.647" r="6.35326" fill="#D3E3F8" fill-opacity="0.4"/>
<circle cx="6.35326" cy="138.864" r="6.35326" fill="#D3E3F8" fill-opacity="0.4"/>
<circle cx="26.3205" cy="138.864" r="6.35326" fill="#D3E3F8" fill-opacity="0.4"/>
<circle cx="6.35326" cy="117.08" r="6.35326" fill="#D3E3F8" fill-opacity="0.4"/>
<circle cx="26.3201" cy="117.08" r="6.35326" fill="#D3E3F8" fill-opacity="0.4"/>
<circle cx="6.35326" cy="93.4822" r="6.35326" fill="#D3E3F8" fill-opacity="0.4"/>
<circle cx="26.3201" cy="93.4822" r="6.35326" fill="#D3E3F8" fill-opacity="0.4"/>
<circle cx="86.2224" cy="93.4822" r="6.35326" fill="#D3E3F8" fill-opacity="0.4"/>
<circle cx="106.191" cy="93.4822" r="6.35326" fill="#D3E3F8" fill-opacity="0.4"/>
<circle cx="46.2888" cy="73.5173" r="6.35326" fill="#D3E3F8" fill-opacity="0.4"/>
<circle cx="66.2556" cy="73.5173" r="6.35326" fill="#D3E3F8" fill-opacity="0.4"/>
<circle cx="86.2224" cy="73.5173" r="6.35326" fill="#D3E3F8" fill-opacity="0.4"/>
<circle cx="106.191" cy="73.5173" r="6.35326" fill="#D3E3F8" fill-opacity="0.4"/>
<circle cx="46.2888" cy="51.7322" r="6.35326" fill="#D3E3F8" fill-opacity="0.4"/>
<circle cx="66.2556" cy="51.7322" r="6.35326" fill="#D3E3F8" fill-opacity="0.4"/>
<circle cx="86.2224" cy="51.7322" r="6.35326" fill="#D3E3F8" fill-opacity="0.4"/>
<circle cx="106.191" cy="51.7322" r="6.35326" fill="#D3E3F8" fill-opacity="0.4"/>
<circle cx="46.2878" cy="29.9509" r="6.35326" fill="#D3E3F8" fill-opacity="0.4"/>
<circle cx="66.2556" cy="29.9509" r="6.35326" fill="#D3E3F8" fill-opacity="0.4"/>
<circle cx="86.2229" cy="29.9509" r="6.35326" fill="#D3E3F8" fill-opacity="0.4"/>
<circle cx="106.19" cy="29.9509" r="6.35326" fill="#D3E3F8" fill-opacity="0.4"/>
<circle cx="46.2878" cy="6.35326" r="6.35326" fill="#D3E3F8" fill-opacity="0.4"/>
<circle cx="66.2556" cy="6.35326" r="6.35326" fill="#D3E3F8" fill-opacity="0.4"/>
<circle cx="6.35326" cy="73.5173" r="6.35326" fill="#D3E3F8" fill-opacity="0.4"/>
<circle cx="26.3201" cy="73.5173" r="6.35326" fill="#D3E3F8" fill-opacity="0.4"/>
<circle cx="6.35326" cy="51.7322" r="6.35326" fill="#D3E3F8" fill-opacity="0.4"/>
<circle cx="26.3201" cy="51.7322" r="6.35326" fill="#D3E3F8" fill-opacity="0.4"/>
<circle cx="6.35326" cy="29.9509" r="6.35326" fill="#D3E3F8" fill-opacity="0.4"/>
<circle cx="26.3205" cy="29.9509" r="6.35326" fill="#D3E3F8" fill-opacity="0.4"/>
<circle cx="6.35326" cy="6.35326" r="6.35326" fill="#D3E3F8" fill-opacity="0.4"/>
<circle cx="26.3205" cy="6.35326" r="6.35326" fill="#D3E3F8" fill-opacity="0.4"/>
<circle cx="86.2229" cy="6.35326" r="6.35326" fill="#D3E3F8" fill-opacity="0.4"/>
<circle cx="106.19" cy="6.35326" r="6.35326" fill="#D3E3F8" fill-opacity="0.4"/>
</g>
</svg>
